<mxfile host="app.diagrams.net" modified="2023-07-04T12:27:49.338Z" agent="Mozilla/5.0 (Windows NT 10.0; Win64; x64) AppleWebKit/537.36 (KHTML, like Gecko) Chrome/114.0.0.0 Safari/537.36 Edg/114.0.1823.58" etag="LcjqN7dj2iGJARUtpo6E" version="21.5.2" type="github">
  <diagram name="第 1 页" id="XhXCg2Ok07YFrrj1PNat">
    <mxGraphModel dx="794" dy="477" grid="0" gridSize="10" guides="1" tooltips="1" connect="1" arrows="1" fold="1" page="1" pageScale="1" pageWidth="827" pageHeight="1169" math="0" shadow="0">
      <root>
        <mxCell id="0" />
        <mxCell id="1" parent="0" />
        <mxCell id="_7LHMn7Qy-vGmnw-7lLM-3" style="edgeStyle=orthogonalEdgeStyle;rounded=0;orthogonalLoop=1;jettySize=auto;html=1;exitX=0.5;exitY=0.5;exitDx=0;exitDy=15;exitPerimeter=0;entryX=0.5;entryY=0;entryDx=0;entryDy=0;" edge="1" parent="1" source="_7LHMn7Qy-vGmnw-7lLM-4" target="_7LHMn7Qy-vGmnw-7lLM-11">
          <mxGeometry relative="1" as="geometry" />
        </mxCell>
        <mxCell id="_7LHMn7Qy-vGmnw-7lLM-4" value="进入学习统计界面" style="html=1;dashed=0;whiteSpace=wrap;shape=mxgraph.dfd.start;fillColor=#ffcc99;strokeColor=#36393d;" vertex="1" parent="1">
          <mxGeometry x="277.5" y="140" width="120" height="30" as="geometry" />
        </mxCell>
        <mxCell id="_7LHMn7Qy-vGmnw-7lLM-7" value="退出学习统计界面" style="html=1;dashed=0;whiteSpace=wrap;shape=mxgraph.dfd.start;fillColor=#ffcc99;strokeColor=#36393d;" vertex="1" parent="1">
          <mxGeometry x="280" y="448" width="120" height="30" as="geometry" />
        </mxCell>
        <mxCell id="_7LHMn7Qy-vGmnw-7lLM-31" style="edgeStyle=orthogonalEdgeStyle;rounded=0;orthogonalLoop=1;jettySize=auto;html=1;exitX=0.5;exitY=1;exitDx=0;exitDy=0;entryX=0.5;entryY=0;entryDx=0;entryDy=0;" edge="1" parent="1" source="_7LHMn7Qy-vGmnw-7lLM-11" target="_7LHMn7Qy-vGmnw-7lLM-17">
          <mxGeometry relative="1" as="geometry" />
        </mxCell>
        <mxCell id="_7LHMn7Qy-vGmnw-7lLM-11" value="模糊查询" style="html=1;dashed=0;whiteSpace=wrap;fillColor=#1ba1e2;fontColor=#ffffff;strokeColor=#006EAF;" vertex="1" parent="1">
          <mxGeometry x="300" y="200" width="80" height="40" as="geometry" />
        </mxCell>
        <mxCell id="_7LHMn7Qy-vGmnw-7lLM-16" style="edgeStyle=orthogonalEdgeStyle;rounded=0;orthogonalLoop=1;jettySize=auto;html=1;exitX=0.5;exitY=1;exitDx=0;exitDy=0;entryX=0.5;entryY=0;entryDx=0;entryDy=0;" edge="1" parent="1" source="_7LHMn7Qy-vGmnw-7lLM-17" target="_7LHMn7Qy-vGmnw-7lLM-25">
          <mxGeometry relative="1" as="geometry" />
        </mxCell>
        <mxCell id="_7LHMn7Qy-vGmnw-7lLM-17" value="学员基本&lt;br&gt;信息" style="shape=parallelogram;perimeter=parallelogramPerimeter;whiteSpace=wrap;html=1;dashed=0;fillColor=#1ba1e2;fontColor=#ffffff;strokeColor=#006EAF;" vertex="1" parent="1">
          <mxGeometry x="292.5" y="260" width="90" height="40" as="geometry" />
        </mxCell>
        <mxCell id="_7LHMn7Qy-vGmnw-7lLM-24" style="edgeStyle=orthogonalEdgeStyle;rounded=0;orthogonalLoop=1;jettySize=auto;html=1;exitX=0.5;exitY=1;exitDx=0;exitDy=0;entryX=0.5;entryY=0;entryDx=0;entryDy=0;" edge="1" parent="1" source="_7LHMn7Qy-vGmnw-7lLM-25" target="_7LHMn7Qy-vGmnw-7lLM-28">
          <mxGeometry relative="1" as="geometry" />
        </mxCell>
        <mxCell id="_7LHMn7Qy-vGmnw-7lLM-25" value="查找成功" style="shape=rhombus;html=1;dashed=0;whiteSpace=wrap;perimeter=rhombusPerimeter;fillColor=#dae8fc;strokeColor=#6c8ebf;" vertex="1" parent="1">
          <mxGeometry x="297.5" y="320" width="85" height="40" as="geometry" />
        </mxCell>
        <mxCell id="_7LHMn7Qy-vGmnw-7lLM-27" style="edgeStyle=orthogonalEdgeStyle;rounded=0;orthogonalLoop=1;jettySize=auto;html=1;exitX=0.5;exitY=1;exitDx=0;exitDy=0;" edge="1" parent="1" source="_7LHMn7Qy-vGmnw-7lLM-28" target="_7LHMn7Qy-vGmnw-7lLM-7">
          <mxGeometry relative="1" as="geometry" />
        </mxCell>
        <mxCell id="_7LHMn7Qy-vGmnw-7lLM-28" value="更新学习统计列表" style="html=1;dashed=0;whiteSpace=wrap;fillColor=#1ba1e2;fontColor=#ffffff;strokeColor=#006EAF;" vertex="1" parent="1">
          <mxGeometry x="255" y="387" width="170" height="40" as="geometry" />
        </mxCell>
        <mxCell id="_7LHMn7Qy-vGmnw-7lLM-29" style="edgeStyle=orthogonalEdgeStyle;rounded=0;orthogonalLoop=1;jettySize=auto;html=1;exitX=0.5;exitY=0.5;exitDx=0;exitDy=15;exitPerimeter=0;" edge="1" parent="1" source="_7LHMn7Qy-vGmnw-7lLM-7" target="_7LHMn7Qy-vGmnw-7lLM-7">
          <mxGeometry relative="1" as="geometry" />
        </mxCell>
        <mxCell id="_7LHMn7Qy-vGmnw-7lLM-33" style="edgeStyle=orthogonalEdgeStyle;rounded=0;orthogonalLoop=1;jettySize=auto;html=1;exitX=0.5;exitY=0.5;exitDx=0;exitDy=15;exitPerimeter=0;entryX=0.5;entryY=0;entryDx=0;entryDy=0;" edge="1" parent="1" source="_7LHMn7Qy-vGmnw-7lLM-34" target="_7LHMn7Qy-vGmnw-7lLM-37">
          <mxGeometry relative="1" as="geometry" />
        </mxCell>
        <mxCell id="_7LHMn7Qy-vGmnw-7lLM-53" style="edgeStyle=orthogonalEdgeStyle;rounded=0;orthogonalLoop=1;jettySize=auto;html=1;exitX=0.5;exitY=0.5;exitDx=0;exitDy=15;exitPerimeter=0;" edge="1" parent="1" source="_7LHMn7Qy-vGmnw-7lLM-34" target="_7LHMn7Qy-vGmnw-7lLM-45">
          <mxGeometry relative="1" as="geometry" />
        </mxCell>
        <mxCell id="_7LHMn7Qy-vGmnw-7lLM-34" value="进入考试统计界面" style="html=1;dashed=0;whiteSpace=wrap;shape=mxgraph.dfd.start;fillColor=#ffcc99;strokeColor=#36393d;" vertex="1" parent="1">
          <mxGeometry x="564" y="150" width="120" height="30" as="geometry" />
        </mxCell>
        <mxCell id="_7LHMn7Qy-vGmnw-7lLM-35" value="退出考试统计界面" style="html=1;dashed=0;whiteSpace=wrap;shape=mxgraph.dfd.start;fillColor=#ffcc99;strokeColor=#36393d;" vertex="1" parent="1">
          <mxGeometry x="564" y="476" width="120" height="30" as="geometry" />
        </mxCell>
        <mxCell id="_7LHMn7Qy-vGmnw-7lLM-36" style="edgeStyle=orthogonalEdgeStyle;rounded=0;orthogonalLoop=1;jettySize=auto;html=1;exitX=0.5;exitY=1;exitDx=0;exitDy=0;entryX=0.5;entryY=0;entryDx=0;entryDy=0;" edge="1" parent="1" source="_7LHMn7Qy-vGmnw-7lLM-37" target="_7LHMn7Qy-vGmnw-7lLM-39">
          <mxGeometry relative="1" as="geometry" />
        </mxCell>
        <mxCell id="_7LHMn7Qy-vGmnw-7lLM-37" value="模糊查询" style="html=1;dashed=0;whiteSpace=wrap;fillColor=#1ba1e2;fontColor=#ffffff;strokeColor=#006EAF;" vertex="1" parent="1">
          <mxGeometry x="523" y="210" width="80" height="40" as="geometry" />
        </mxCell>
        <mxCell id="_7LHMn7Qy-vGmnw-7lLM-38" style="edgeStyle=orthogonalEdgeStyle;rounded=0;orthogonalLoop=1;jettySize=auto;html=1;exitX=0.5;exitY=1;exitDx=0;exitDy=0;entryX=0.5;entryY=0;entryDx=0;entryDy=0;" edge="1" parent="1" source="_7LHMn7Qy-vGmnw-7lLM-39" target="_7LHMn7Qy-vGmnw-7lLM-41">
          <mxGeometry relative="1" as="geometry" />
        </mxCell>
        <mxCell id="_7LHMn7Qy-vGmnw-7lLM-39" value="学员基本&lt;br&gt;信息" style="shape=parallelogram;perimeter=parallelogramPerimeter;whiteSpace=wrap;html=1;dashed=0;fillColor=#1ba1e2;fontColor=#ffffff;strokeColor=#006EAF;" vertex="1" parent="1">
          <mxGeometry x="515.5" y="270" width="90" height="40" as="geometry" />
        </mxCell>
        <mxCell id="_7LHMn7Qy-vGmnw-7lLM-40" style="edgeStyle=orthogonalEdgeStyle;rounded=0;orthogonalLoop=1;jettySize=auto;html=1;exitX=0.5;exitY=1;exitDx=0;exitDy=0;entryX=0.5;entryY=0;entryDx=0;entryDy=0;" edge="1" parent="1" source="_7LHMn7Qy-vGmnw-7lLM-41" target="_7LHMn7Qy-vGmnw-7lLM-43">
          <mxGeometry relative="1" as="geometry" />
        </mxCell>
        <mxCell id="_7LHMn7Qy-vGmnw-7lLM-41" value="查找成功" style="shape=rhombus;html=1;dashed=0;whiteSpace=wrap;perimeter=rhombusPerimeter;fillColor=#dae8fc;strokeColor=#6c8ebf;" vertex="1" parent="1">
          <mxGeometry x="520.5" y="330" width="85" height="40" as="geometry" />
        </mxCell>
        <mxCell id="_7LHMn7Qy-vGmnw-7lLM-42" style="edgeStyle=orthogonalEdgeStyle;rounded=0;orthogonalLoop=1;jettySize=auto;html=1;exitX=0.5;exitY=1;exitDx=0;exitDy=0;" edge="1" parent="1" source="_7LHMn7Qy-vGmnw-7lLM-43" target="_7LHMn7Qy-vGmnw-7lLM-35">
          <mxGeometry relative="1" as="geometry" />
        </mxCell>
        <mxCell id="_7LHMn7Qy-vGmnw-7lLM-43" value="更新考试统计列表" style="html=1;dashed=0;whiteSpace=wrap;fillColor=#1ba1e2;fontColor=#ffffff;strokeColor=#006EAF;" vertex="1" parent="1">
          <mxGeometry x="504.5" y="399" width="116" height="40" as="geometry" />
        </mxCell>
        <mxCell id="_7LHMn7Qy-vGmnw-7lLM-44" style="edgeStyle=orthogonalEdgeStyle;rounded=0;orthogonalLoop=1;jettySize=auto;html=1;exitX=0.5;exitY=0.5;exitDx=0;exitDy=15;exitPerimeter=0;" edge="1" parent="1" source="_7LHMn7Qy-vGmnw-7lLM-35" target="_7LHMn7Qy-vGmnw-7lLM-35">
          <mxGeometry relative="1" as="geometry" />
        </mxCell>
        <mxCell id="_7LHMn7Qy-vGmnw-7lLM-52" style="edgeStyle=orthogonalEdgeStyle;rounded=0;orthogonalLoop=1;jettySize=auto;html=1;exitX=0.5;exitY=1;exitDx=0;exitDy=0;entryX=0.5;entryY=0;entryDx=0;entryDy=0;" edge="1" parent="1" source="_7LHMn7Qy-vGmnw-7lLM-45" target="_7LHMn7Qy-vGmnw-7lLM-46">
          <mxGeometry relative="1" as="geometry" />
        </mxCell>
        <mxCell id="_7LHMn7Qy-vGmnw-7lLM-45" value="考试详情" style="html=1;dashed=0;whiteSpace=wrap;fillColor=#1ba1e2;fontColor=#ffffff;strokeColor=#006EAF;" vertex="1" parent="1">
          <mxGeometry x="648" y="210" width="80" height="40" as="geometry" />
        </mxCell>
        <mxCell id="_7LHMn7Qy-vGmnw-7lLM-51" style="edgeStyle=orthogonalEdgeStyle;rounded=0;orthogonalLoop=1;jettySize=auto;html=1;exitX=0.5;exitY=1;exitDx=0;exitDy=0;entryX=0.5;entryY=0;entryDx=0;entryDy=0;" edge="1" parent="1" source="_7LHMn7Qy-vGmnw-7lLM-46" target="_7LHMn7Qy-vGmnw-7lLM-47">
          <mxGeometry relative="1" as="geometry" />
        </mxCell>
        <mxCell id="_7LHMn7Qy-vGmnw-7lLM-46" value="学员编号" style="shape=parallelogram;perimeter=parallelogramPerimeter;whiteSpace=wrap;html=1;dashed=0;fillColor=#1ba1e2;fontColor=#ffffff;strokeColor=#006EAF;" vertex="1" parent="1">
          <mxGeometry x="643" y="273" width="90" height="40" as="geometry" />
        </mxCell>
        <mxCell id="_7LHMn7Qy-vGmnw-7lLM-50" style="edgeStyle=orthogonalEdgeStyle;rounded=0;orthogonalLoop=1;jettySize=auto;html=1;exitX=0.5;exitY=1;exitDx=0;exitDy=0;" edge="1" parent="1" source="_7LHMn7Qy-vGmnw-7lLM-47" target="_7LHMn7Qy-vGmnw-7lLM-48">
          <mxGeometry relative="1" as="geometry" />
        </mxCell>
        <mxCell id="_7LHMn7Qy-vGmnw-7lLM-47" value="查找成功" style="shape=rhombus;html=1;dashed=0;whiteSpace=wrap;perimeter=rhombusPerimeter;fillColor=#dae8fc;strokeColor=#6c8ebf;" vertex="1" parent="1">
          <mxGeometry x="645.5" y="330" width="85" height="40" as="geometry" />
        </mxCell>
        <mxCell id="_7LHMn7Qy-vGmnw-7lLM-49" style="edgeStyle=orthogonalEdgeStyle;rounded=0;orthogonalLoop=1;jettySize=auto;html=1;exitX=0.5;exitY=1;exitDx=0;exitDy=0;entryX=0.5;entryY=0.5;entryDx=0;entryDy=-15;entryPerimeter=0;" edge="1" parent="1" source="_7LHMn7Qy-vGmnw-7lLM-48" target="_7LHMn7Qy-vGmnw-7lLM-35">
          <mxGeometry relative="1" as="geometry" />
        </mxCell>
        <mxCell id="_7LHMn7Qy-vGmnw-7lLM-48" value="弹出考试详情界面" style="html=1;dashed=0;whiteSpace=wrap;fillColor=#1ba1e2;fontColor=#ffffff;strokeColor=#006EAF;" vertex="1" parent="1">
          <mxGeometry x="630" y="399" width="116" height="40" as="geometry" />
        </mxCell>
        <mxCell id="_7LHMn7Qy-vGmnw-7lLM-54" style="edgeStyle=orthogonalEdgeStyle;rounded=0;orthogonalLoop=1;jettySize=auto;html=1;exitX=0.5;exitY=0.5;exitDx=0;exitDy=15;exitPerimeter=0;entryX=0.5;entryY=0;entryDx=0;entryDy=0;" edge="1" parent="1" source="_7LHMn7Qy-vGmnw-7lLM-55" target="_7LHMn7Qy-vGmnw-7lLM-58">
          <mxGeometry relative="1" as="geometry" />
        </mxCell>
        <mxCell id="_7LHMn7Qy-vGmnw-7lLM-55" value="进入个人信息界面" style="html=1;dashed=0;whiteSpace=wrap;shape=mxgraph.dfd.start;fillColor=#ffcc99;strokeColor=#36393d;" vertex="1" parent="1">
          <mxGeometry x="280.5" y="635" width="120" height="30" as="geometry" />
        </mxCell>
        <mxCell id="_7LHMn7Qy-vGmnw-7lLM-56" value="退出个人信息界面" style="html=1;dashed=0;whiteSpace=wrap;shape=mxgraph.dfd.start;fillColor=#ffcc99;strokeColor=#36393d;" vertex="1" parent="1">
          <mxGeometry x="283" y="948" width="120" height="30" as="geometry" />
        </mxCell>
        <mxCell id="_7LHMn7Qy-vGmnw-7lLM-57" style="edgeStyle=orthogonalEdgeStyle;rounded=0;orthogonalLoop=1;jettySize=auto;html=1;exitX=0.5;exitY=1;exitDx=0;exitDy=0;entryX=0.5;entryY=0;entryDx=0;entryDy=0;" edge="1" parent="1" source="_7LHMn7Qy-vGmnw-7lLM-58" target="_7LHMn7Qy-vGmnw-7lLM-60">
          <mxGeometry relative="1" as="geometry" />
        </mxCell>
        <mxCell id="_7LHMn7Qy-vGmnw-7lLM-58" value="修改信息" style="html=1;dashed=0;whiteSpace=wrap;fillColor=#1ba1e2;fontColor=#ffffff;strokeColor=#006EAF;" vertex="1" parent="1">
          <mxGeometry x="303" y="695" width="80" height="40" as="geometry" />
        </mxCell>
        <mxCell id="_7LHMn7Qy-vGmnw-7lLM-59" style="edgeStyle=orthogonalEdgeStyle;rounded=0;orthogonalLoop=1;jettySize=auto;html=1;exitX=0.5;exitY=1;exitDx=0;exitDy=0;entryX=0.5;entryY=0;entryDx=0;entryDy=0;" edge="1" parent="1" source="_7LHMn7Qy-vGmnw-7lLM-60" target="_7LHMn7Qy-vGmnw-7lLM-62">
          <mxGeometry relative="1" as="geometry" />
        </mxCell>
        <mxCell id="_7LHMn7Qy-vGmnw-7lLM-60" value="账号基本&lt;br&gt;信息" style="shape=parallelogram;perimeter=parallelogramPerimeter;whiteSpace=wrap;html=1;dashed=0;fillColor=#1ba1e2;fontColor=#ffffff;strokeColor=#006EAF;" vertex="1" parent="1">
          <mxGeometry x="295.5" y="755" width="90" height="40" as="geometry" />
        </mxCell>
        <mxCell id="_7LHMn7Qy-vGmnw-7lLM-61" style="edgeStyle=orthogonalEdgeStyle;rounded=0;orthogonalLoop=1;jettySize=auto;html=1;exitX=0.5;exitY=1;exitDx=0;exitDy=0;entryX=0.5;entryY=0;entryDx=0;entryDy=0;" edge="1" parent="1" source="_7LHMn7Qy-vGmnw-7lLM-62" target="_7LHMn7Qy-vGmnw-7lLM-64">
          <mxGeometry relative="1" as="geometry" />
        </mxCell>
        <mxCell id="_7LHMn7Qy-vGmnw-7lLM-68" value="Y" style="edgeLabel;html=1;align=center;verticalAlign=middle;resizable=0;points=[];" vertex="1" connectable="0" parent="_7LHMn7Qy-vGmnw-7lLM-61">
          <mxGeometry x="-0.1383" y="1" relative="1" as="geometry">
            <mxPoint as="offset" />
          </mxGeometry>
        </mxCell>
        <mxCell id="_7LHMn7Qy-vGmnw-7lLM-67" style="edgeStyle=orthogonalEdgeStyle;rounded=0;orthogonalLoop=1;jettySize=auto;html=1;exitX=1;exitY=0.5;exitDx=0;exitDy=0;" edge="1" parent="1" source="_7LHMn7Qy-vGmnw-7lLM-62" target="_7LHMn7Qy-vGmnw-7lLM-66">
          <mxGeometry relative="1" as="geometry" />
        </mxCell>
        <mxCell id="_7LHMn7Qy-vGmnw-7lLM-69" value="N" style="edgeLabel;html=1;align=center;verticalAlign=middle;resizable=0;points=[];" vertex="1" connectable="0" parent="_7LHMn7Qy-vGmnw-7lLM-67">
          <mxGeometry x="0.2553" y="1" relative="1" as="geometry">
            <mxPoint as="offset" />
          </mxGeometry>
        </mxCell>
        <mxCell id="_7LHMn7Qy-vGmnw-7lLM-62" value="修改成功" style="shape=rhombus;html=1;dashed=0;whiteSpace=wrap;perimeter=rhombusPerimeter;fillColor=#dae8fc;strokeColor=#6c8ebf;" vertex="1" parent="1">
          <mxGeometry x="300.5" y="815" width="85" height="40" as="geometry" />
        </mxCell>
        <mxCell id="_7LHMn7Qy-vGmnw-7lLM-63" style="edgeStyle=orthogonalEdgeStyle;rounded=0;orthogonalLoop=1;jettySize=auto;html=1;exitX=0.5;exitY=1;exitDx=0;exitDy=0;" edge="1" parent="1" source="_7LHMn7Qy-vGmnw-7lLM-64" target="_7LHMn7Qy-vGmnw-7lLM-56">
          <mxGeometry relative="1" as="geometry" />
        </mxCell>
        <mxCell id="_7LHMn7Qy-vGmnw-7lLM-64" value="更新个人信息界面" style="html=1;dashed=0;whiteSpace=wrap;fillColor=#1ba1e2;fontColor=#ffffff;strokeColor=#006EAF;" vertex="1" parent="1">
          <mxGeometry x="258" y="887" width="170" height="40" as="geometry" />
        </mxCell>
        <mxCell id="_7LHMn7Qy-vGmnw-7lLM-65" style="edgeStyle=orthogonalEdgeStyle;rounded=0;orthogonalLoop=1;jettySize=auto;html=1;exitX=0.5;exitY=0.5;exitDx=0;exitDy=15;exitPerimeter=0;" edge="1" parent="1" source="_7LHMn7Qy-vGmnw-7lLM-56" target="_7LHMn7Qy-vGmnw-7lLM-56">
          <mxGeometry relative="1" as="geometry" />
        </mxCell>
        <mxCell id="_7LHMn7Qy-vGmnw-7lLM-66" value="错误提示" style="shape=parallelogram;perimeter=parallelogramPerimeter;whiteSpace=wrap;html=1;dashed=0;fillColor=#f0a30a;fontColor=#000000;strokeColor=#BD7000;" vertex="1" parent="1">
          <mxGeometry x="418" y="820" width="80" height="30" as="geometry" />
        </mxCell>
      </root>
    </mxGraphModel>
  </diagram>
</mxfile>
